<?xml version="1.0" encoding="iso-8859-1"?>
<!-- Generator: Adobe Illustrator 19.0.0, SVG Export Plug-In . SVG Version: 6.00 Build 0)  -->
<svg version="1.1" id="Layer_1" xmlns="http://www.w3.org/2000/svg" xmlns:xlink="http://www.w3.org/1999/xlink" x="0px" y="0px"
	 viewBox="0 0 481.882 481.882" style="enable-background:new 0 0 481.882 481.882;" xml:space="preserve">
<path style="fill:#EBF0F3;" d="M315.031,0H69.873c-6.024,0-11.445,4.819-11.445,11.445v458.993c0,6.024,4.819,11.445,11.445,11.445
	h342.137c6.024,0,11.445-4.819,11.445-11.445V108.424c0-3.012-1.205-6.024-3.012-7.831L322.861,3.012
	C320.452,1.205,318.042,0,315.031,0z"/>
<path style="fill:#D5D6DB;" d="M330.692,103.605h91.558c-0.602-1.205-1.205-2.409-2.409-3.012l-48.791-48.791L322.861,3.012
	c-1.205-1.205-1.807-1.807-3.012-2.409V92.16C319.247,98.786,324.668,103.605,330.692,103.605z"/>
<path style="fill:#E56353;" d="M137.939,425.864c-8.433,0-15.059-4.819-18.071-7.831c-10.24-12.047-10.24-22.287-8.433-28.913
	c1.205-6.024,4.819-11.445,10.24-15.059c7.831-6.024,29.515-21.082,61.44-34.334c16.866-30.72,28.311-55.417,36.141-75.294
	c-13.252-25.299-18.071-45.779-19.275-56.019c-1.205-8.433-0.602-16.866,1.807-24.094c6.024-19.275,19.275-19.878,24.696-19.275
	c1.205,0,22.287,3.012,25.901,33.129c0,1.205,2.409,20.48-13.854,65.656c10.24,17.468,24.696,36.744,46.984,55.417
	c21.082,0,43.972,1.807,68.066,7.831c5.421,1.205,10.24,4.216,13.854,8.433c6.024,6.626,7.228,15.059,4.216,23.492l0,0
	c0,0-1.205,4.216-4.819,8.433c-6.626,9.035-19.275,12.047-29.515,6.626c-22.889-12.047-42.165-24.696-57.826-37.948
	c-31.925,1.205-60.235,8.433-83.125,17.468c-10.24,18.673-22.889,39.153-37.346,62.042c-3.012,4.216-6.626,7.831-11.445,9.638l0,0
	C143.36,425.261,140.348,425.864,137.939,425.864z M167.454,365.026c-18.071,9.638-30.72,18.071-35.539,22.287
	c-1.807,1.807-3.614,3.614-3.614,5.421c-1.205,4.216,0.602,8.433,4.819,13.252c0,0,3.614,3.012,7.228,1.807l0,0
	c1.205-0.602,2.409-1.205,3.012-3.012C151.793,390.927,160.226,377.675,167.454,365.026z M307.802,336.113
	c10.842,7.228,22.889,15.059,36.141,21.685c2.409,1.205,5.421,0.602,7.228-1.807c1.807-2.409,2.409-4.216,2.409-4.216
	c1.205-3.012,1.205-4.216-0.602-6.024c-1.205-1.205-3.012-2.409-5.421-3.012C334.306,339.125,321.054,337.318,307.802,336.113z
	 M229.496,282.504c-6.024,13.854-13.252,29.515-22.889,47.586c16.264-4.819,33.732-9.035,53.007-10.842
	C247.567,306.598,237.327,293.948,229.496,282.504z M223.473,181.308c-2.409,0-4.216,2.409-6.024,7.831
	c-1.807,4.819-1.807,10.24-1.205,16.264c1.205,7.228,3.614,19.275,10.24,34.936c9.035-28.913,7.831-40.96,7.831-40.96
	C232.508,183.115,224.075,181.308,223.473,181.308L223.473,181.308z"/>
<g>
</g>
<g>
</g>
<g>
</g>
<g>
</g>
<g>
</g>
<g>
</g>
<g>
</g>
<g>
</g>
<g>
</g>
<g>
</g>
<g>
</g>
<g>
</g>
<g>
</g>
<g>
</g>
<g>
</g>
</svg>
